<svg width="48" height="48" viewBox="0 0 48 48" fill="none" xmlns="http://www.w3.org/2000/svg">
<mask id="mask0_42_13" style="mask-type:alpha" maskUnits="userSpaceOnUse" x="0" y="0" width="48" height="48">
<rect width="48" height="48" fill="#D9D9D9"/>
</mask>
<g mask="url(#mask0_42_13)">
<path d="M7.61549 27V15H9.15399V27H7.61549ZM38.846 32.9885V21H40.3845V32.9885H38.846ZM16.396 42C15.6277 42 14.974 41.7307 14.435 41.192C13.8963 40.653 13.627 39.9993 13.627 39.231V8.769C13.627 8.00067 13.8963 7.347 14.435 6.808C14.974 6.26933 15.6277 6 16.396 6H31.6155C32.3842 6 33.0378 6.26933 33.5765 6.808C34.1152 7.347 34.3845 8.00067 34.3845 8.769V39.231C34.3845 39.9993 34.1152 40.653 33.5765 41.192C33.0378 41.7307 32.3842 42 31.6155 42H16.396ZM32.846 37.6925H15.1655V39.231C15.1655 39.5387 15.2937 39.8207 15.55 40.077C15.8063 40.3333 16.0883 40.4615 16.396 40.4615H31.6155C31.9232 40.4615 32.2052 40.3333 32.4615 40.077C32.7178 39.8207 32.846 39.5387 32.846 39.231V37.6925ZM15.1655 10.3075H32.846V8.769C32.846 8.46133 32.7178 8.17933 32.4615 7.923C32.2052 7.66667 31.9232 7.5385 31.6155 7.5385H16.396C16.0883 7.5385 15.8063 7.66667 15.55 7.923C15.2937 8.17933 15.1655 8.46133 15.1655 8.769V10.3075ZM15.1655 36.154H32.846V11.846H15.1655V36.154Z" fill="#FB8500"/>
</g>
</svg>
