<svg width="48" height="48" viewBox="0 0 48 48" fill="none" xmlns="http://www.w3.org/2000/svg">
<mask id="mask0_42_25" style="mask-type:alpha" maskUnits="userSpaceOnUse" x="0" y="0" width="48" height="48">
<rect width="48" height="48" fill="#D9D9D9"/>
</mask>
<g mask="url(#mask0_42_25)">
<path d="M37.204 40L36.1425 38.9385L40.523 34.5075H29.8885V32.969H40.523L36.1425 28.5385L37.204 27.477L43.4655 33.7385L37.204 40ZM20.1905 28.769C21.6228 28.769 22.9377 28.4523 24.135 27.819C25.3323 27.1857 26.3348 26.3435 27.1425 25.2925C26.1115 24.6052 25.0168 24.0897 23.8585 23.746C22.6998 23.4027 21.4755 23.231 20.1855 23.231C18.8952 23.231 17.673 23.4027 16.519 23.746C15.3653 24.0897 14.2732 24.6052 13.2425 25.2925C14.0502 26.3435 15.052 27.1857 16.248 27.819C17.4437 28.4523 18.7578 28.769 20.1905 28.769ZM20.216 18.769C20.9873 18.769 21.6378 18.4965 22.1675 17.9515C22.6968 17.4062 22.9615 16.7478 22.9615 15.9765C22.9615 15.2048 22.6945 14.5543 22.1605 14.025C21.6268 13.4957 20.9693 13.231 20.188 13.231C19.4293 13.231 18.7788 13.4978 18.2365 14.0315C17.6942 14.5655 17.423 15.2232 17.423 16.0045C17.423 16.7632 17.6957 17.4137 18.241 17.956C18.7863 18.498 19.4447 18.769 20.216 18.769ZM20.1925 42.0385C15.4925 37.8822 11.952 34.0058 9.571 30.4095C7.19033 26.8135 6 23.5412 6 20.5925C6 16.3615 7.3775 12.8717 10.1325 10.123C12.8878 7.37433 16.2412 6 20.1925 6C24.1435 6 27.4967 7.37433 30.252 10.123C33.007 12.8717 34.3845 16.3615 34.3845 20.5925C34.3845 20.9728 34.3773 21.3598 34.363 21.7535C34.3483 22.1475 34.2863 22.54 34.177 22.931H32.527C32.6167 22.5437 32.6923 22.1512 32.754 21.7535C32.8153 21.3562 32.846 20.9692 32.846 20.5925C32.846 16.7982 31.6488 13.6675 29.2545 11.2005C26.8602 8.7335 23.8395 7.5 20.1925 7.5C16.5452 7.5 13.5243 8.7335 11.13 11.2005C8.73567 13.6675 7.5385 16.7982 7.5385 20.5925C7.5385 23.1435 8.6795 26.1568 10.9615 29.6325C13.2435 33.1082 16.3205 36.555 20.1925 39.973C21.0358 39.255 21.8338 38.5178 22.5865 37.7615C23.3392 37.0052 24.0578 36.259 24.7425 35.523C24.7682 35.523 24.8387 35.573 24.954 35.673C25.0693 35.773 25.1987 35.8845 25.342 36.0075C25.4853 36.1308 25.6148 36.243 25.7305 36.344L25.904 36.496C25.06 37.4137 24.166 38.3238 23.222 39.2265C22.278 40.1288 21.2682 41.0662 20.1925 42.0385Z" fill="#FB8500"/>
</g>
</svg>
