<svg width="48" height="48" viewBox="0 0 48 48" fill="none" xmlns="http://www.w3.org/2000/svg">
<mask id="mask0_42_7" style="mask-type:alpha" maskUnits="userSpaceOnUse" x="0" y="0" width="48" height="48">
<rect width="48" height="48" fill="#D9D9D9"/>
</mask>
<g mask="url(#mask0_42_7)">
<path d="M24.0065 42C21.5175 42 19.1773 41.5277 16.986 40.583C14.795 39.6383 12.889 38.3563 11.268 36.737C9.647 35.1177 8.36383 33.2133 7.4185 31.024C6.47283 28.835 6 26.4958 6 24.0065C6 21.5175 6.47233 19.1773 7.417 16.986C8.36167 14.795 9.64367 12.889 11.263 11.268C12.8823 9.647 14.7867 8.36383 16.976 7.4185C19.165 6.47283 21.5042 6 23.9935 6C26.4825 6 28.8227 6.47233 31.014 7.417C33.205 8.36167 35.111 9.64367 36.732 11.263C38.353 12.8823 39.6362 14.7867 40.5815 16.976C41.5272 19.165 42 21.5042 42 23.9935C42 26.4825 41.5277 28.8227 40.583 31.014C39.6383 33.205 38.3563 35.111 36.737 36.732C35.1177 38.353 33.2133 39.6362 31.024 40.5815C28.835 41.5272 26.4958 42 24.0065 42ZM21.927 40.373V36.3885C20.7813 36.3885 19.8162 35.9808 19.0315 35.1655C18.2465 34.3502 17.854 33.372 17.854 32.231V30.146L7.95 20.2425C7.83467 20.8578 7.73717 21.4787 7.6575 22.105C7.57817 22.731 7.5385 23.3655 7.5385 24.0085C7.5385 28.1822 8.902 31.828 11.629 34.946C14.3557 38.064 17.7883 39.873 21.927 40.373ZM36.1655 35.127C36.8475 34.3783 37.457 33.5692 37.994 32.6995C38.5313 31.8298 38.9875 30.9197 39.3625 29.969C39.7375 29.0183 40.0143 28.0435 40.193 27.0445C40.372 26.0458 40.4615 25.031 40.4615 24C40.4615 20.6013 39.5333 17.4972 37.677 14.6875C35.8207 11.8778 33.3142 9.84483 30.1575 8.5885V9.5405C30.1575 10.6725 29.7652 11.6462 28.9805 12.4615C28.1955 13.2768 27.2302 13.6845 26.0845 13.6845H21.927V17.8425C21.927 18.4198 21.7212 18.8955 21.3095 19.2695C20.8982 19.6438 20.4137 19.831 19.856 19.831H15.769V24H28.169C28.7467 24 29.2225 24.2038 29.5965 24.6115C29.9705 25.0192 30.1575 25.5063 30.1575 26.073V32.231H32.2145C33.1408 32.231 33.9652 32.5 34.6875 33.038C35.4102 33.5763 35.9028 34.2727 36.1655 35.127Z" fill="#FB8500"/>
</g>
</svg>
