<svg width="48" height="48" viewBox="0 0 48 48" fill="none" xmlns="http://www.w3.org/2000/svg">
<mask id="mask0_42_19" style="mask-type:alpha" maskUnits="userSpaceOnUse" x="0" y="0" width="48" height="48">
<rect width="48" height="48" fill="#D9D9D9"/>
</mask>
<g mask="url(#mask0_42_19)">
<path d="M11.5385 40.4615V19.6845V39.231V39.1105V40.4615ZM17.769 18.146H30.231V13.769C30.231 12.0383 29.626 10.5673 28.416 9.356C27.206 8.14433 25.7367 7.5385 24.008 7.5385C22.2797 7.5385 20.8078 8.14433 19.5925 9.356C18.3768 10.5673 17.769 12.0383 17.769 13.769V18.146ZM12.769 42C12.021 42 11.3725 41.7255 10.8235 41.1765C10.2745 40.6275 10 39.979 10 39.231V20.9155C10 20.1475 10.2745 19.494 10.8235 18.955C11.3725 18.4157 12.021 18.146 12.769 18.146H16.231V13.769C16.231 11.6047 16.9855 9.76883 18.4945 8.2615C20.0035 6.75383 21.8413 6 24.008 6C26.1743 6 28.0095 6.75383 29.5135 8.2615C31.0172 9.76883 31.769 11.6047 31.769 13.769V18.146H35.231C35.979 18.146 36.6275 18.4157 37.1765 18.955C37.7255 19.494 38 20.1475 38 20.9155V28.5345C37.8617 28.5192 37.727 28.5032 37.596 28.4865C37.465 28.4698 37.3255 28.4615 37.1775 28.4615C37.0592 28.4615 36.9365 28.4635 36.8095 28.4675C36.6825 28.4712 36.5665 28.464 36.4615 28.446V20.9155C36.4615 20.5565 36.3462 20.2617 36.1155 20.031C35.8845 19.8 35.5897 19.6845 35.231 19.6845H12.769C12.4103 19.6845 12.1155 19.8 11.8845 20.031C11.6538 20.2617 11.5385 20.5565 11.5385 20.9155V39.231C11.5385 39.5897 11.6538 39.8845 11.8845 40.1155C12.1155 40.3462 12.4103 40.4615 12.769 40.4615H29.137C29.2407 40.7462 29.3578 41.0083 29.4885 41.248C29.6192 41.4877 29.7743 41.7383 29.954 42H12.769ZM37.269 42C36.2153 42 35.3237 41.6353 34.594 40.906C33.8647 40.1763 33.5 39.2915 33.5 38.2515C33.5 37.7478 33.5813 37.2737 33.744 36.829C33.9063 36.384 34.1442 36.0052 34.4575 35.6925L37.269 32.5575L40.087 35.692C40.3983 36.0153 40.6347 36.3968 40.796 36.8365C40.9577 37.2762 41.0385 37.7478 41.0385 38.2515C41.0385 39.2915 40.6737 40.1763 39.944 40.906C39.214 41.6353 38.3223 42 37.269 42ZM24.0085 33C24.8132 33 25.5007 32.7162 26.071 32.1485C26.6417 31.5808 26.927 30.8967 26.927 30.096C26.927 29.327 26.639 28.643 26.063 28.044C25.4867 27.4453 24.7962 27.146 23.9915 27.146C23.1868 27.146 22.4993 27.4453 21.929 28.044C21.3583 28.643 21.073 29.3353 21.073 30.121C21.073 30.907 21.361 31.5833 21.937 32.15C22.5133 32.7167 23.2038 33 24.0085 33Z" fill="#FB8500"/>
</g>
</svg>
